<svg width="54" height="50" viewBox="0 0 54 50" fill="none" xmlns="http://www.w3.org/2000/svg">
<g clip-path="url(#clip0)">
<path d="M52.6398 13.3169C48.1722 13.3169 45.908 12.38 43.7182 11.4739C41.5954 10.5955 39.5902 9.7658 35.4757 9.7658C31.3611 9.7658 29.356 10.5955 27.233 11.474C25.0432 12.3801 22.779 13.3169 18.3116 13.3169C13.8441 13.3169 11.5797 12.38 9.39047 11.4739C7.26778 10.5955 5.26272 9.7658 1.14828 9.7658C0.912827 9.7658 0.687016 9.67227 0.520524 9.50578C0.354032 9.33928 0.260498 9.11347 0.260498 8.87802C0.260498 8.64256 0.354032 8.41675 0.520524 8.25026C0.687016 8.08377 0.912827 7.99023 1.14828 7.99023C5.61561 7.99023 7.87968 8.92718 10.0694 9.83327C12.1922 10.7116 14.1973 11.5414 18.3116 11.5414C22.4259 11.5414 24.4313 10.7116 26.5542 9.83327C28.7439 8.92718 31.0081 7.99023 35.4757 7.99023C39.9432 7.99023 42.2073 8.92707 44.3971 9.83316C46.52 10.7116 48.5251 11.5414 52.6398 11.5414C52.8752 11.5414 53.101 11.6349 53.2675 11.8014C53.434 11.9679 53.5275 12.1937 53.5275 12.4292C53.5275 12.6646 53.434 12.8904 53.2675 13.0569C53.101 13.2234 52.8752 13.3169 52.6398 13.3169Z" fill="#A3D4F7"/>
<path d="M52.6398 22.1949C48.1722 22.1949 45.908 21.2579 43.7182 20.3518C41.5954 19.4735 39.5902 18.6437 35.4757 18.6437C31.3611 18.6437 29.356 19.4735 27.233 20.3519C25.0432 21.258 22.779 22.1949 18.3116 22.1949C13.8441 22.1949 11.5797 21.2579 9.39047 20.3518C7.26778 19.4735 5.26272 18.6437 1.14828 18.6437C0.912827 18.6437 0.687016 18.5502 0.520524 18.3837C0.354032 18.2172 0.260498 17.9914 0.260498 17.7559C0.260498 17.5205 0.354032 17.2947 0.520524 17.1282C0.687016 16.9617 0.912827 16.8682 1.14828 16.8682C5.61561 16.8682 7.87968 17.8051 10.0694 18.7112C12.1922 19.5896 14.1976 20.4193 18.3116 20.4193C22.4256 20.4193 24.4313 19.5896 26.5542 18.7112C28.7439 17.8051 31.0081 16.8682 35.4757 16.8682C39.9432 16.8682 42.2073 17.805 44.3971 18.7111C46.52 19.5896 48.5251 20.4193 52.6398 20.4193C52.8752 20.4193 53.101 20.5128 53.2675 20.6793C53.434 20.8458 53.5275 21.0716 53.5275 21.3071C53.5275 21.5425 53.434 21.7683 53.2675 21.9348C53.101 22.1013 52.8752 22.1949 52.6398 22.1949Z" fill="#A3D4F7"/>
<path d="M52.6398 31.0728C48.1722 31.0728 45.908 30.1359 43.7182 29.2298C41.5954 28.3514 39.5902 27.5217 35.4757 27.5217C31.3611 27.5217 29.356 28.3514 27.233 29.2299C25.0432 30.136 22.779 31.0728 18.3116 31.0728C13.8441 31.0728 11.5797 30.1359 9.39047 29.2298C7.26778 28.3514 5.26272 27.5217 1.14828 27.5217C0.912827 27.5217 0.687016 27.4281 0.520524 27.2616C0.354032 27.0951 0.260498 26.8693 0.260498 26.6339C0.260498 26.3984 0.354032 26.1726 0.520524 26.0061C0.687016 25.8396 0.912827 25.7461 1.14828 25.7461C5.61561 25.7461 7.87968 26.683 10.0694 27.5891C12.1922 28.4675 14.1976 29.2972 18.3116 29.2972C22.4256 29.2972 24.4313 28.4675 26.5542 27.5891C28.7439 26.683 31.0081 25.7461 35.4757 25.7461C39.9432 25.7461 42.2073 26.6829 44.3971 27.589C46.52 28.4675 48.5251 29.2972 52.6398 29.2972C52.8752 29.2972 53.101 29.3908 53.2675 29.5573C53.434 29.7237 53.5275 29.9496 53.5275 30.185C53.5275 30.4205 53.434 30.6463 53.2675 30.8128C53.101 30.9793 52.8752 31.0728 52.6398 31.0728Z" fill="#A3D4F7"/>
<path d="M24.7935 6.41565C24.6919 6.33232 24.5732 6.27259 24.4457 6.24077C24.3183 6.20895 24.1853 6.20584 24.0565 6.23165L15.1787 8.00722C14.9774 8.04747 14.7963 8.15621 14.6662 8.31494C14.5361 8.47366 14.465 8.67257 14.465 8.8778V15.245C13.932 15.0565 13.3528 15.0426 12.8113 15.2052C12.2698 15.3678 11.7941 15.6985 11.453 16.1494C11.112 16.6004 10.9233 17.1481 10.9142 17.7134C10.9052 18.2787 11.0763 18.8323 11.4027 19.2939C11.7292 19.7555 12.1941 20.1012 12.7301 20.2811C13.2661 20.4609 13.8454 20.4655 14.3842 20.2942C14.923 20.1229 15.3934 19.7845 15.7271 19.3281C16.0608 18.8718 16.2407 18.321 16.2406 17.7556V9.60568L23.3429 8.18522V13.4694C22.8098 13.281 22.2306 13.267 21.6891 13.4296C21.1476 13.5922 20.6719 13.9229 20.3309 14.3739C19.9898 14.8248 19.8011 15.3725 19.7921 15.9379C19.783 16.5032 19.9541 17.0567 20.2806 17.5183C20.607 17.9799 21.0719 18.3257 21.6079 18.5055C22.1439 18.6853 22.7233 18.6899 23.2621 18.5186C23.8009 18.3473 24.2712 18.009 24.6049 17.5526C24.9387 17.0962 25.1185 16.5455 25.1184 15.9801V7.10224C25.1184 6.97088 25.0893 6.84117 25.0331 6.72244C24.9769 6.60371 24.8951 6.49893 24.7935 6.41565ZM13.5772 18.6434C13.4016 18.6434 13.23 18.5914 13.084 18.4938C12.938 18.3963 12.8242 18.2576 12.757 18.0954C12.6898 17.9332 12.6723 17.7547 12.7065 17.5824C12.7408 17.4102 12.8253 17.252 12.9495 17.1279C13.0736 17.0037 13.2318 16.9192 13.404 16.8849C13.5762 16.8507 13.7548 16.8682 13.917 16.9354C14.0792 17.0026 14.2178 17.1164 14.3154 17.2624C14.4129 17.4084 14.465 17.5801 14.465 17.7556C14.4648 17.991 14.3711 18.2167 14.2047 18.3831C14.0383 18.5495 13.8126 18.6432 13.5772 18.6434ZM22.4551 16.8679C22.2795 16.8679 22.1078 16.8158 21.9618 16.7182C21.8159 16.6207 21.7021 16.482 21.6349 16.3198C21.5677 16.1576 21.5501 15.9791 21.5843 15.8069C21.6186 15.6347 21.7032 15.4765 21.8273 15.3523C21.9515 15.2282 22.1097 15.1436 22.2819 15.1094C22.4541 15.0751 22.6326 15.0927 22.7948 15.1599C22.957 15.2271 23.0957 15.3409 23.1932 15.4869C23.2908 15.6328 23.3429 15.8045 23.3429 15.9801C23.3426 16.2155 23.249 16.4411 23.0825 16.6075C22.9161 16.774 22.6904 16.8676 22.4551 16.8679Z" fill="#3397E8"/>
<path d="M4.69942 22.1948C4.46396 22.1948 4.23815 22.2884 4.07166 22.4548C3.90517 22.6213 3.81163 22.8472 3.81163 23.0826V29.4498C3.27859 29.2613 2.6994 29.2474 2.1579 29.41C1.6164 29.5726 1.1407 29.9033 0.799642 30.3542C0.458588 30.8052 0.269882 31.3529 0.260839 31.9182C0.251796 32.4835 0.422885 33.0371 0.749342 33.4987C1.0758 33.9603 1.54068 34.306 2.0767 34.4859C2.61272 34.6657 3.19206 34.6703 3.73087 34.499C4.26967 34.3277 4.73998 33.9893 5.07371 33.5329C5.40744 33.0766 5.58728 32.5258 5.5872 31.9604V23.0826C5.5872 22.8472 5.49367 22.6213 5.32718 22.4548C5.16069 22.2884 4.93487 22.1948 4.69942 22.1948ZM2.92385 32.8482C2.74826 32.8482 2.57662 32.7962 2.43062 32.6986C2.28463 32.6011 2.17084 32.4624 2.10364 32.3002C2.03645 32.138 2.01887 31.9595 2.05312 31.7872C2.08738 31.615 2.17193 31.4568 2.29609 31.3327C2.42025 31.2085 2.57844 31.124 2.75065 31.0897C2.92287 31.0555 3.10137 31.073 3.26359 31.1402C3.42581 31.2074 3.56447 31.3212 3.66202 31.4672C3.75957 31.6132 3.81163 31.7849 3.81163 31.9604C3.81137 32.1958 3.71775 32.4215 3.55132 32.5879C3.38488 32.7543 3.15922 32.848 2.92385 32.8482Z" fill="#3397E8"/>
<path d="M39.2964 21.0915C39.2682 20.9784 39.218 20.8719 39.1486 20.7782C39.0793 20.6845 38.9921 20.6054 38.8921 20.5454C38.7921 20.4854 38.6813 20.4457 38.566 20.4286C38.4507 20.4114 38.3331 20.4172 38.22 20.4456L31.1177 22.2211C30.9256 22.2691 30.7551 22.38 30.6332 22.536C30.5113 22.6921 30.4451 22.8844 30.4451 23.0824V29.4496C29.9121 29.2611 29.3329 29.2472 28.7914 29.4098C28.2499 29.5724 27.7742 29.9031 27.4331 30.354C27.0921 30.8049 26.9034 31.3527 26.8943 31.918C26.8853 32.4833 27.0564 33.0368 27.3828 33.4984C27.7093 33.9601 28.1742 34.3058 28.7102 34.4856C29.2462 34.6655 29.8255 34.6701 30.3643 34.4987C30.9032 34.3274 31.3735 33.9891 31.7072 33.5327C32.0409 33.0763 32.2208 32.5256 32.2207 31.9602V23.7755L38.6505 22.1681C38.8789 22.111 39.0753 21.9655 39.1964 21.7636C39.3175 21.5617 39.3535 21.32 39.2964 21.0915ZM29.5573 32.848C29.3817 32.848 29.2101 32.7959 29.0641 32.6984C28.9181 32.6008 28.8043 32.4622 28.7371 32.3C28.6699 32.1377 28.6524 31.9592 28.6866 31.787C28.7209 31.6148 28.8054 31.4566 28.9296 31.3325C29.0537 31.2083 29.2119 31.1238 29.3841 31.0895C29.5563 31.0552 29.7349 31.0728 29.8971 31.14C30.0593 31.2072 30.1979 31.321 30.2955 31.467C30.393 31.613 30.4451 31.7846 30.4451 31.9602C30.4449 32.1956 30.3512 32.4213 30.1848 32.5877C30.0184 32.7541 29.7927 32.8477 29.5573 32.848Z" fill="#3397E8"/>
<path d="M49.0886 40.8379H41.9864V15.9799H49.0886V40.8379Z" fill="#FFD33A"/>
<path d="M44.6497 7.10205H46.4252L49.0886 15.9799H41.9863L44.6497 7.10205Z" fill="#D49073"/>
<path d="M47.4906 10.6532H43.5844L44.6497 7.10205H46.4253L47.4906 10.6532Z" fill="#3397E8"/>
<path d="M49.0886 44.3892H41.9864V40.838H49.0886V44.3892Z" fill="#D49073"/>
<path d="M45.5375 49.7159C46.4793 49.7159 47.3825 49.3417 48.0485 48.6758C48.7145 48.0098 49.0886 47.1065 49.0886 46.1647V44.3892H41.9863V46.1647C41.9863 47.1065 42.3605 48.0098 43.0264 48.6758C43.6924 49.3417 44.5956 49.7159 45.5375 49.7159Z" fill="#E9EEF2"/>
<path d="M44.6497 15.98H46.4252V40.8379H44.6497V15.98Z" fill="#F7B030"/>
</g>
<defs>
<clipPath id="clip0">
<rect width="53.7879" height="50" fill="white"/>
</clipPath>
</defs>
</svg>
