<svg width="62" height="50" viewBox="0 0 62 50" fill="none" xmlns="http://www.w3.org/2000/svg">
<g clip-path="url(#clip0)">
<path d="M61.1467 28.5852C61.1467 31.9152 59.8239 35.1088 57.4692 37.4635C55.1146 39.8181 51.9209 41.141 48.5909 41.141H15.1088C13.054 41.1403 11.0224 40.7073 9.14588 39.8701C7.26938 39.033 5.58999 37.8104 4.21682 36.2818C2.84365 34.7533 1.80742 32.9529 1.17547 30.9978C0.543509 29.0426 0.329957 26.9763 0.548686 24.9332C0.767414 22.8901 1.41353 20.9159 2.44505 19.1388C3.47658 17.3617 4.87043 15.8215 6.53606 14.6183C8.20169 13.4151 10.1018 12.5757 12.113 12.1548C14.1242 11.7338 16.2015 11.7407 18.2098 12.175C19.8229 9.22999 22.284 6.83792 25.2737 5.30936C28.2635 3.78079 31.6437 3.18634 34.9755 3.60317C38.3074 4.02001 41.437 5.42888 43.958 7.64687C46.479 9.86485 48.275 12.7895 49.1128 16.0411C52.3496 16.1754 55.4092 17.5557 57.652 19.8935C59.8947 22.2313 61.1469 25.3456 61.1467 28.5852Z" fill="#3397E8"/>
<path d="M30.8037 49.5119C38.3159 49.5119 44.4058 43.422 44.4058 35.9097C44.4058 28.3975 38.3159 22.3076 30.8037 22.3076C23.2914 22.3076 17.2015 28.3975 17.2015 35.9097C17.2015 43.422 23.2914 49.5119 30.8037 49.5119Z" fill="#A3D4F7"/>
<path d="M37.7449 27.7762C37.6252 27.6781 37.4852 27.6077 37.335 27.5702C37.1848 27.5327 37.0281 27.529 36.8763 27.5594L26.4132 29.652C26.176 29.6995 25.9625 29.8276 25.8092 30.0147C25.6558 30.2017 25.572 30.4362 25.572 30.6781V38.1822C24.9438 37.9601 24.2612 37.9437 23.623 38.1353C22.9848 38.327 22.4242 38.7167 22.0222 39.2482C21.6202 39.7796 21.3978 40.4252 21.3872 41.0915C21.3765 41.7577 21.5782 42.4101 21.9629 42.9541C22.3477 43.4982 22.8956 43.9057 23.5273 44.1176C24.159 44.3295 24.8418 44.335 25.4769 44.133C26.1119 43.9311 26.6662 43.5324 27.0595 42.9945C27.4528 42.4567 27.6648 41.8076 27.6647 41.1412V31.5359L36.0352 29.8618V36.0897C35.407 35.8676 34.7244 35.8512 34.0862 36.0428C33.448 36.2345 32.8873 36.6242 32.4854 37.1557C32.0834 37.6872 31.861 38.3327 31.8504 38.999C31.8397 39.6653 32.0414 40.3176 32.4261 40.8617C32.8109 41.4057 33.3588 41.8132 33.9906 42.0251C34.6223 42.2371 35.3051 42.2424 35.9401 42.0405C36.5751 41.8386 37.1294 41.4398 37.5227 40.9019C37.916 40.364 38.128 39.7149 38.1279 39.0486V28.5854C38.1279 28.4306 38.0935 28.2777 38.0273 28.1378C37.9611 27.9979 37.8646 27.8744 37.7449 27.7762ZM24.5257 42.1875C24.3188 42.1875 24.1165 42.1262 23.9444 42.0112C23.7724 41.8962 23.6383 41.7328 23.5591 41.5416C23.4799 41.3504 23.4591 41.1401 23.4995 40.9371C23.5399 40.7341 23.6395 40.5477 23.7859 40.4014C23.9322 40.255 24.1186 40.1554 24.3216 40.115C24.5246 40.0746 24.7349 40.0954 24.9261 40.1746C25.1173 40.2537 25.2807 40.3879 25.3957 40.5599C25.5107 40.732 25.572 40.9343 25.572 41.1412C25.5717 41.4186 25.4614 41.6846 25.2652 41.8807C25.0691 42.0769 24.8031 42.1872 24.5257 42.1875ZM34.9889 40.0949C34.782 40.0949 34.5797 40.0335 34.4076 39.9186C34.2355 39.8036 34.1014 39.6402 34.0222 39.449C33.943 39.2578 33.9223 39.0474 33.9627 38.8445C34.0031 38.6415 34.1027 38.4551 34.249 38.3087C34.3954 38.1624 34.5818 38.0627 34.7848 38.0224C34.9877 37.982 35.1981 38.0027 35.3893 38.0819C35.5805 38.1611 35.7439 38.2952 35.8589 38.4673C35.9739 38.6394 36.0352 38.8416 36.0352 39.0486C36.0349 39.326 35.9246 39.5919 35.7284 39.7881C35.5323 39.9843 35.2663 40.0946 34.9889 40.0949Z" fill="#E9EEF2"/>
<path d="M11.9699 14.9834C11.6924 14.9834 11.4263 15.0936 11.2301 15.2899C11.0338 15.4861 10.9236 15.7522 10.9236 16.0297V23.5339C10.2954 23.3118 9.61276 23.2954 8.97456 23.487C8.33637 23.6786 7.77572 24.0684 7.37376 24.5998C6.97181 25.1313 6.7494 25.7769 6.73874 26.4431C6.72809 27.1094 6.92973 27.7617 7.31448 28.3058C7.69923 28.8498 8.24713 29.2573 8.87887 29.4693C9.51061 29.6812 10.1934 29.6866 10.8284 29.4847C11.4634 29.2828 12.0177 28.8841 12.4111 28.3462C12.8044 27.8083 13.0163 27.1592 13.0162 26.4929V16.0297C13.0162 15.7522 12.906 15.4861 12.7098 15.2899C12.5136 15.0936 12.2474 14.9834 11.9699 14.9834ZM9.8773 27.5392C9.67035 27.5392 9.46806 27.4778 9.29599 27.3629C9.12393 27.2479 8.98982 27.0845 8.91062 26.8933C8.83143 26.7021 8.81071 26.4917 8.85108 26.2888C8.89145 26.0858 8.99111 25.8994 9.13744 25.753C9.28377 25.6067 9.4702 25.507 9.67317 25.4667C9.87613 25.4263 10.0865 25.447 10.2777 25.5262C10.4689 25.6054 10.6323 25.7395 10.7473 25.9116C10.8622 26.0836 10.9236 26.2859 10.9236 26.4929C10.9233 26.7703 10.813 27.0362 10.6168 27.2324C10.4207 27.4285 10.1547 27.5389 9.8773 27.5392Z" fill="#A3D4F7"/>
<path d="M53.7914 1.12749C53.7241 0.858308 53.5526 0.626885 53.3147 0.484113C53.0768 0.341341 52.7919 0.298912 52.5227 0.366159L44.1522 2.45879C43.9258 2.51535 43.7248 2.64598 43.5811 2.8299C43.4375 3.01383 43.3595 3.24049 43.3595 3.47385V10.978C42.7312 10.7559 42.0486 10.7395 41.4104 10.9311C40.7722 11.1228 40.2116 11.5125 39.8096 12.044C39.4077 12.5754 39.1853 13.221 39.1746 13.8873C39.1639 14.5535 39.3656 15.2059 39.7503 15.7499C40.1351 16.294 40.683 16.7015 41.3147 16.9134C41.9465 17.1253 42.6293 17.1308 43.2643 16.9289C43.8993 16.7269 44.4536 16.3282 44.8469 15.7903C45.2402 15.2525 45.4522 14.6034 45.4521 13.937V4.29076L53.03 2.39628C53.2993 2.32898 53.5307 2.15749 53.6735 1.91955C53.8162 1.68161 53.8587 1.3967 53.7914 1.12749ZM42.3131 14.9833C42.1062 14.9833 41.9039 14.922 41.7318 14.807C41.5598 14.692 41.4257 14.5286 41.3465 14.3374C41.2673 14.1462 41.2466 13.9359 41.2869 13.7329C41.3273 13.5299 41.427 13.3435 41.5733 13.1972C41.7196 13.0508 41.9061 12.9512 42.109 12.9108C42.312 12.8704 42.5224 12.8912 42.7136 12.9704C42.9047 13.0495 43.0682 13.1837 43.1831 13.3557C43.2981 13.5278 43.3595 13.7301 43.3595 13.937C43.3591 14.2144 43.2488 14.4804 43.0527 14.6765C42.8565 14.8727 42.5905 14.983 42.3131 14.9833Z" fill="#A3D4F7"/>
</g>
<defs>
<clipPath id="clip0">
<rect width="61.6071" height="50" fill="white"/>
</clipPath>
</defs>
</svg>
