<svg width="72" height="35" viewBox="0 0 72 35" fill="none" xmlns="http://www.w3.org/2000/svg">
<path d="M71 17.5C71 8.3873 63.6127 1 54.5 1L17.5 1C8.38731 1 1 8.3873 1 17.5C1 26.6127 8.3873 34 17.5 34L54.5 34C63.6127 34 71 26.6127 71 17.5Z" fill="#0F0F3A" stroke="#EF9F00" stroke-width="2"/>
<path d="M43.3682 13.9042C43.1671 13.904 42.9688 13.9528 42.7891 14.0468C42.6094 14.1408 42.4534 14.2772 42.3336 14.4452C42.2137 14.6132 42.1334 14.8081 42.099 15.0143C42.0646 15.2204 42.0771 15.4321 42.1355 15.6323C41.438 16.0341 40.7409 16.4371 40.0444 16.8414L38.6265 13.6404L37.0842 10.1872C37.0579 10.1285 37.0153 10.0794 36.962 10.0461C36.9086 10.0129 36.8469 9.99697 36.7848 10.0005C36.7227 10.004 36.663 10.0267 36.6134 10.0658C36.5638 10.1049 36.5266 10.1585 36.5065 10.2198V10.2251C36.2148 11.123 35.9271 12.0223 35.6433 12.9232L34.7856 15.6236C34.4978 16.5218 34.2218 17.4258 33.9413 18.3289L33.3578 20.2138L31.1154 14.8442C31.2863 14.7035 31.4099 14.51 31.4684 14.2916C31.527 14.0732 31.5174 13.8411 31.4411 13.6287C31.3648 13.4163 31.2256 13.2346 31.0438 13.1097C30.8619 12.9848 30.6466 12.9232 30.4289 12.9338C30.2112 12.9443 30.0024 13.0264 29.8324 13.1683C29.6625 13.3103 29.5402 13.5046 29.4831 13.7235C29.4261 13.9423 29.4373 14.1744 29.515 14.3862C29.5928 14.598 29.7332 14.7787 29.9159 14.9022L27.2901 24.1236L24.28 17.3263V17.3244C24.2772 17.318 24.274 17.3118 24.2705 17.3058C24.2454 17.2635 24.2053 17.2331 24.1588 17.2213C24.1123 17.2094 24.0633 17.217 24.0222 17.2425L21.376 18.9122C21.2516 18.7593 21.0773 18.6597 20.8866 18.6325C20.6959 18.6052 20.5023 18.6523 20.3429 18.7646C20.1835 18.8769 20.0696 19.0465 20.0231 19.2409C19.9766 19.4352 20.0008 19.6406 20.091 19.8175C20.1812 19.9945 20.331 20.1305 20.5117 20.1995C20.6924 20.2684 20.8912 20.2655 21.07 20.1912C21.2487 20.1169 21.3948 19.9764 21.4801 19.7969C21.5654 19.6173 21.5839 19.4113 21.5321 19.2184L24.0331 17.6743L27.133 24.8651C27.1511 24.9075 27.1813 24.9431 27.2195 24.9671C27.2576 24.9911 27.3019 25.0024 27.3464 24.9996C27.3909 24.9967 27.4335 24.9797 27.4685 24.9509C27.5035 24.9221 27.5292 24.8829 27.5421 24.8385V24.8362L30.4075 15.0715C30.4301 15.0715 30.4531 15.0749 30.4761 15.0749C30.5233 15.0745 30.5704 15.0708 30.6172 15.0639L33.112 21.2631C33.1366 21.3243 33.1785 21.3762 33.2322 21.4119C33.2859 21.4477 33.3488 21.4655 33.4125 21.463C33.4761 21.4605 33.5376 21.4379 33.5886 21.3981C33.6395 21.3583 33.6776 21.3032 33.6977 21.2403V21.2365L34.5606 18.538C34.8458 17.6375 35.1379 16.7397 35.4176 15.8376L36.264 13.1331C36.4648 12.4897 36.6646 11.8461 36.8632 11.2023L38.1064 13.8966L39.6998 17.326L39.7019 17.3305C39.7046 17.3364 39.7075 17.3421 39.7107 17.3476C39.7448 17.4078 39.8003 17.4516 39.8652 17.4695C39.9302 17.4874 39.9992 17.4779 40.0575 17.4432C40.8212 16.9815 41.5829 16.5161 42.3427 16.0471C42.4745 16.2293 42.6489 16.3733 42.8493 16.4657C43.0497 16.558 43.2694 16.5955 43.4877 16.5747C43.7059 16.5538 43.9154 16.4753 44.0963 16.3465C44.2772 16.2178 44.4235 16.0431 44.5212 15.839C44.619 15.6349 44.665 15.4082 44.655 15.1804C44.6449 14.9526 44.5791 14.7312 44.4637 14.5373C44.3483 14.3434 44.1873 14.1834 43.9958 14.0725C43.8043 13.9615 43.5888 13.9033 43.3696 13.9034L43.3682 13.9042Z" fill="#F0A003"/>
<path d="M46.136 16.8782C45.9438 16.5914 45.8475 16.3045 45.7756 16.0172C45.7088 15.7355 45.6754 15.4463 45.6761 15.1562C45.6745 14.866 45.7074 14.5768 45.7742 14.2951C45.8471 14.0082 45.9427 13.721 46.136 13.4341C46.3289 13.721 46.4255 14.0082 46.4974 14.2951C46.5641 14.5768 46.5971 14.866 46.5955 15.1562C46.5962 15.4463 46.5628 15.7355 46.4959 16.0172C46.4241 16.3045 46.3296 16.5914 46.136 16.8782Z" fill="#F3A201"/>
<path d="M48.7102 18.5047C48.518 17.9469 48.4221 17.3886 48.3498 16.8304C48.2834 16.275 48.2502 15.7158 48.2506 15.1562C48.2493 14.5965 48.2821 14.0373 48.3487 13.4819C48.4217 12.9237 48.5169 12.3658 48.7102 11.8076C48.9034 12.3658 48.9997 12.9237 49.0716 13.4819C49.1382 14.0373 49.171 14.5965 49.1697 15.1562C49.1701 15.7158 49.1369 16.275 49.0705 16.8304C48.9983 17.3886 48.9023 17.9469 48.7102 18.5047Z" fill="#F3A201"/>
<path d="M51.3763 20.1311C51.1844 19.302 51.0882 18.4728 51.0163 17.6436C50.9445 16.8145 50.9175 15.9853 50.9168 15.1561C50.916 14.327 50.9478 13.4978 51.0149 12.6686C51.082 11.8395 51.1833 11.0103 51.3763 10.1812C51.5696 11.0103 51.6662 11.8395 51.738 12.6686C51.8099 13.4978 51.8369 14.327 51.8361 15.1561C51.8354 15.9853 51.804 16.8145 51.7366 17.6436C51.6691 18.4728 51.5685 19.302 51.3763 20.1311Z" fill="#F3A201"/>
</svg>
