<svg width="89" height="41" viewBox="0 0 89 41" fill="none" xmlns="http://www.w3.org/2000/svg">
<path d="M64.8426 11.4097C64.2846 11.4092 63.7343 11.5394 63.2357 11.79C62.7372 12.0406 62.3043 12.4044 61.9718 12.8525C61.6392 13.3005 61.4163 13.8203 61.3209 14.37C61.2254 14.9197 61.2601 15.4842 61.4222 16.0181C59.4867 17.0894 57.5525 18.1641 55.6197 19.2422L51.6852 10.7064L47.4057 1.49766C47.3327 1.34127 47.2145 1.21029 47.0665 1.12158C46.9184 1.03286 46.7472 0.99045 46.5748 0.999808C46.4025 1.00917 46.2369 1.06986 46.0993 1.17409C45.9617 1.27831 45.8584 1.42131 45.8028 1.58469V1.59886C44.9932 3.99312 44.1948 6.39144 43.4075 8.7938L41.0274 15.9948C40.229 18.3901 39.4629 20.8006 38.6847 23.209L37.0656 28.2353L30.8432 13.9163C31.3174 13.5412 31.6605 13.0253 31.8229 12.4429C31.9853 11.8604 31.9587 11.2415 31.747 10.6751C31.5352 10.1087 31.1492 9.62412 30.6445 9.2911C30.1398 8.95808 29.5424 8.79379 28.9384 8.82189C28.3344 8.84999 27.7549 9.06902 27.2833 9.44746C26.8117 9.8259 26.4723 10.3442 26.314 10.9278C26.1558 11.5114 26.1868 12.1302 26.4025 12.695C26.6183 13.2599 27.0078 13.7417 27.5149 14.0711L20.2288 38.6614L11.8762 20.5354V20.5304C11.8685 20.5133 11.8597 20.4968 11.8499 20.4808C11.7802 20.3679 11.6688 20.2869 11.5399 20.2552C11.411 20.2236 11.2749 20.2439 11.1608 20.3118L3.81809 24.7644C3.4729 24.3568 2.98928 24.0912 2.46014 24.0185C1.93101 23.9459 1.39369 24.0713 0.951431 24.3708C0.509172 24.6702 0.193168 25.1225 0.0641428 25.6408C-0.064882 26.1591 0.00217164 26.7068 0.252419 27.1786C0.502667 27.6505 0.918458 28.0132 1.4199 28.1971C1.92133 28.381 2.47305 28.3731 2.96903 28.175C3.46501 27.9768 3.87026 27.6023 4.10693 27.1235C4.3436 26.6447 4.39497 26.0954 4.2512 25.581L11.1911 21.4634L19.7927 40.6388C19.8431 40.7518 19.9269 40.8467 20.0327 40.9108C20.1386 40.9748 20.2615 41.0051 20.385 40.9974C20.5085 40.9897 20.6267 40.9444 20.7237 40.8676C20.8208 40.7909 20.8921 40.6863 20.9281 40.5679V40.5619L28.879 14.5224C28.9417 14.5224 29.0055 14.5315 29.0692 14.5315C29.2003 14.5305 29.3311 14.5207 29.4608 14.5022L36.3836 31.0334C36.4517 31.1966 36.568 31.3351 36.717 31.4303C36.866 31.5256 37.0405 31.5731 37.2172 31.5665C37.3939 31.5599 37.5644 31.4995 37.7059 31.3934C37.8473 31.2873 37.953 31.1405 38.0088 30.9726V30.9625L40.403 23.7666C41.1944 21.3652 42.0049 18.971 42.7811 16.5656L45.1298 9.35341C45.6871 7.63782 46.2413 5.92156 46.7925 4.20462L50.2422 11.3894L54.6634 20.5344L54.6695 20.5466C54.6768 20.5621 54.6849 20.5773 54.6937 20.5921C54.7884 20.7526 54.9424 20.8694 55.1226 20.9172C55.3027 20.9649 55.4944 20.9397 55.6561 20.8471C57.7751 19.6159 59.8887 18.3749 61.997 17.1242C62.3628 17.6099 62.8468 17.9941 63.4028 18.2403C63.9589 18.4865 64.5686 18.5866 65.1742 18.531C65.7798 18.4754 66.3611 18.266 66.863 17.9226C67.3649 17.5793 67.7708 17.1134 68.0421 16.5691C68.3134 16.0249 68.4412 15.4203 68.4132 14.8128C68.3853 14.2054 68.2026 13.6151 67.8825 13.098C67.5624 12.581 67.1155 12.1543 66.5841 11.8585C66.0528 11.5626 65.4547 11.4074 64.8466 11.4077L64.8426 11.4097Z" fill="#F0A003"/>
<path d="M72.5222 19.3402C71.9889 18.5752 71.7218 17.8101 71.5224 17.0441C71.3369 16.2929 71.2441 15.5218 71.2461 14.748C71.2417 13.9743 71.3331 13.2031 71.5183 12.4519C71.7207 11.6868 71.9859 10.9208 72.5222 10.1558C73.0575 10.9208 73.3257 11.6868 73.525 12.4519C73.7102 13.2031 73.8017 13.9743 73.7973 14.748C73.7993 15.5218 73.7065 16.2929 73.521 17.0441C73.3216 17.8101 73.0595 18.5752 72.5222 19.3402Z" fill="#F3A201"/>
<path d="M79.6655 23.6777C79.1322 22.1901 78.8661 20.7016 78.6657 19.213C78.4813 17.7319 78.3894 16.2408 78.3905 14.7483C78.3869 13.2558 78.4778 11.7646 78.6627 10.2836C78.8651 8.79498 79.1292 7.30742 79.6655 5.81885C80.2019 7.30742 80.469 8.79498 80.6684 10.2836C80.8533 11.7646 80.9442 13.2558 80.9406 14.7483C80.9417 16.2408 80.8498 17.7319 80.6653 19.213C80.465 20.7016 80.1988 22.1901 79.6655 23.6777Z" fill="#F3A201"/>
<path d="M87.0639 28.0147C86.5316 25.8036 86.2645 23.5925 86.0651 21.3814C85.8658 19.1703 85.7909 16.9592 85.7889 14.7481C85.7868 12.537 85.8749 10.3259 86.0611 8.11477C86.2473 5.90366 86.5286 3.69255 87.0639 1.48145C87.6002 3.69255 87.8684 5.90366 88.0678 8.11477C88.2671 10.3259 88.342 12.537 88.34 14.7481C88.3379 16.9592 88.2509 19.1703 88.0637 21.3814C87.8765 23.5925 87.5972 25.8036 87.0639 28.0147Z" fill="#F3A201"/>
</svg>
